<svg xmlns="http://www.w3.org/2000/svg"  viewBox="0 0 72 72" width="100px" height="100px"><path d="M36,12c13.255,0,24,10.745,24,24c0,13.255-10.745,24-24,24S12,49.255,12,36C12,22.745,22.745,12,36,12z M45.739,42.012	c0.433-0.438,0.497-0.914,0.355-1.366c-0.186-0.595-0.837-0.801-1.213-1.017c-2.062-1.18-2.392-2.308-2.49-2.475	c-0.039-0.067-0.136-0.291,0.083-0.47c0.203-0.165,1.284-0.691,1.74-1.483c0.236-0.411,0.298-1.038,0.085-1.475	c-0.341-0.7-0.906-1.108-1.688-1.108c-0.286,0-0.576,0.073-0.618,0.083c-0.015-0.451-0.017-0.974-0.045-1.446	C41.826,29.284,40.173,26,36,26s-5.826,3.284-5.948,5.254c-0.029,0.471-0.03,0.994-0.045,1.446c-0.042-0.01-0.331-0.083-0.618-0.083	c-0.782,0-1.347,0.408-1.688,1.108c-0.213,0.438-0.151,1.064,0.085,1.475c0.455,0.792,1.537,1.318,1.74,1.483	c0.219,0.179,0.122,0.403,0.083,0.47c-0.098,0.167-0.428,1.295-2.49,2.475c-0.377,0.215-1.028,0.422-1.213,1.017	c-0.141,0.453-0.077,0.928,0.355,1.366c0.69,0.699,1.895,0.873,2.047,1.017c0.152,0.144,0.219,0.69,0.705,1.003	c0.486,0.312,1.085,0.304,1.392,0.328c1.237,0.094,1.561,0.151,2.331,0.643C32.986,45.161,34.209,46,36,46s3.014-0.839,3.263-0.998	c0.771-0.492,1.095-0.549,2.331-0.643c0.307-0.023,0.906-0.015,1.392-0.328c0.486-0.312,0.553-0.859,0.705-1.003	C43.844,42.884,45.048,42.71,45.739,42.012z"/></svg>